# xmcd
#
# Track frame offsets:
#	225
#	9333
#	19981
#	30174
#	43099
#	64572
#	80002
#	97508
#	112543
#	124166
#	145684
#	160087
#	177153
#	192573
#	210546
#
# Disc length: 2948 seconds
#
# Revision: 0
# Processed by: cddbd v1.5PL3 Copyright (c) Steve Scherf et al.
# Submitted via: dBpowerAMP V4.0
#
DISCID=b00b810f
DTITLE=Ruzni - Country Dostavník
DYEAR=1900
DGENRE=
TTITLE0=Josef Zoch - Pred chajdou
TTITLE1=Mustangove - Buraky
TTITLE2=Rangers - Railroad Bill
TTITLE3=Stare sedlo - Drnova chajda
TTITLE4=Josef Zoch - Shane
TTITLE5=Kocabka - Pole s bavlnou
TTITLE6=Zuzanka a spol - Pekelni jezdci
TTITLE7=Michal Tucny - Ja si jen tak litam
TTITLE8=Vladimir Hrubec - Mexicka svatba
TTITLE9=Josef Zoch - Pampelisky
TTITLE10=Stare sedlo - Zatoka
TTITLE11=Vit Tucny - Usta do podkovy
TTITLE12=Jindra Stahlavsky - Trucker
TTITLE13=Josef Zoch - Balicek cokolady
TTITLE14=Jiri Halekel - Tri krize
EXTD=
EXTT0=
EXTT1=
EXTT2=
EXTT3=
EXTT4=
EXTT5=
EXTT6=
EXTT7=
EXTT8=
EXTT9=
EXTT10=
EXTT11=
EXTT12=
EXTT13=
EXTT14=
PLAYORDER=
